<svg version="1.1" viewBox="0.0 0.0 796.5511811023622 212.3753280839895" fill="none" stroke="none" stroke-linecap="square" stroke-miterlimit="10" xmlns:xlink="http://www.w3.org/1999/xlink" xmlns="http://www.w3.org/2000/svg"><clipPath id="p.0"><path d="m0 0l796.5512 0l0 212.37534l-796.5512 0l0 -212.37534z" clip-rule="nonzero"/></clipPath><g clip-path="url(#p.0)"><path fill="#000000" fill-opacity="0.0" d="m0 0l796.5512 0l0 212.37534l-796.5512 0z" fill-rule="evenodd"/><path fill="#9fc5e8" d="m37.795277 37.795277l188.97638 0l0 37.795277l-188.97638 0z" fill-rule="evenodd"/><path fill="#000000" d="m80.19655 61.892914l0 -7.828125l-0.3125 0q-0.734375 0 -1.046875 -0.28125q-0.296875 -0.28125 -0.296875 -0.734375q0 -0.453125 0.296875 -0.71875q0.3125 -0.28125 1.046875 -0.28125l5.015625 0q1.796875 0 2.890625 1.0q1.09375 1.0 1.09375 2.375q0 0.65625 -0.265625 1.234375q-0.25 0.578125 -0.765625 1.0625q0.953125 0.5625 1.421875 1.328125q0.46875 0.75 0.46875 1.703125q0 0.765625 -0.328125 1.421875q-0.265625 0.5 -0.625 0.796875q-0.5 0.40625 -1.234375 0.671875q-0.71875 0.25 -1.796875 0.25l-5.875 0q-0.734375 0 -1.046875 -0.28125q-0.296875 -0.28125 -0.296875 -0.71875q0 -0.453125 0.3125 -0.71875q0.3125 -0.28125 1.03125 -0.28125l0.3125 0zm2.0 -4.921875l2.1875 0q1.1875 0 1.96875 -0.59375q0.53125 -0.40625 0.53125 -1.0q0 -0.53125 -0.5 -0.921875q-0.5 -0.390625 -1.578125 -0.390625l-2.609375 0l0 2.90625zm0 4.921875l3.453125 0q1.21875 0 1.71875 -0.359375q0.375 -0.28125 0.375 -0.78125q0 -0.609375 -0.75 -1.1875q-0.75 -0.59375 -2.15625 -0.59375l-2.640625 0l0 2.921875zm19.283203 -2.265625q0 1.15625 -0.640625 2.234375q-0.640625 1.078125 -1.90625 1.71875q-1.265625 0.640625 -2.640625 0.640625q-1.359375 0 -2.609375 -0.625q-1.25 -0.640625 -1.90625 -1.71875q-0.65625 -1.09375 -0.65625 -2.265625q0 -1.203125 0.65625 -2.359375q0.671875 -1.15625 1.90625 -1.8125q1.25 -0.671875 2.609375 -0.671875q1.375 0 2.625 0.671875q1.265625 0.671875 1.90625 1.828125q0.65625 1.140625 0.65625 2.359375zm-2.0 0q0 -0.953125 -0.703125 -1.765625q-0.9375 -1.09375 -2.484375 -1.09375q-1.359375 0 -2.265625 0.875q-0.90625 0.859375 -0.90625 2.0q0 0.9375 0.90625 1.75q0.921875 0.8125 2.265625 0.8125q1.34375 0 2.265625 -0.8125q0.921875 -0.8125 0.921875 -1.765625zm13.048828 -4.609375l0 6.875q0.640625 0 0.9375 0.28125q0.3125 0.28125 0.3125 0.71875q0 0.4375 -0.3125 0.71875q-0.3125 0.28125 -1.03125 0.28125l-1.90625 0l0 -0.453125q-0.859375 0.390625 -1.640625 0.578125q-0.78125 0.203125 -1.484375 0.203125q-0.984375 0 -1.703125 -0.421875q-0.71875 -0.421875 -1.140625 -1.140625q-0.3125 -0.53125 -0.3125 -1.328125l0 -4.296875l-0.34375 0q-0.71875 0 -1.03125 -0.28125q-0.296875 -0.28125 -0.296875 -0.734375q0 -0.4375 0.296875 -0.71875q0.3125 -0.28125 1.03125 -0.28125l2.34375 0l0 5.96875q0 0.625 0.3125 0.921875q0.3125 0.296875 0.9375 0.296875q0.609375 0 1.3125 -0.234375q0.703125 -0.234375 1.71875 -0.859375l0 -4.078125l-0.71875 0q-0.71875 0 -1.03125 -0.28125q-0.3125 -0.28125 -0.3125 -0.734375q0 -0.4375 0.3125 -0.71875q0.3125 -0.28125 1.03125 -0.28125l2.71875 0zm8.751953 -3.796875l0 10.671875l2.40625 0q0.71875 0 1.03125 0.28125q0.3125 0.265625 0.3125 0.71875q0 0.4375 -0.3125 0.71875q-0.3125 0.28125 -1.03125 0.28125l-6.8125 0q-0.71875 0 -1.03125 -0.28125q-0.296875 -0.28125 -0.296875 -0.71875q0 -0.453125 0.296875 -0.71875q0.3125 -0.28125 1.03125 -0.28125l2.40625 0l0 -8.671875l-1.609375 0q-0.71875 0 -1.03125 -0.265625q-0.3125 -0.28125 -0.3125 -0.734375q0 -0.4375 0.3125 -0.71875q0.3125 -0.28125 1.03125 -0.28125l3.609375 0zm12.798828 12.671875l0 -0.46875q-0.75 0.40625 -1.65625 0.59375q-0.90625 0.203125 -1.640625 0.203125q-1.625 0 -2.625 -0.84375q-1.0 -0.859375 -1.0 -1.890625q0 -1.265625 1.28125 -2.34375q1.28125 -1.078125 3.546875 -1.078125q0.90625 0 2.09375 0.1875l0 -0.46875q0 -0.453125 -0.390625 -0.734375q-0.375 -0.28125 -1.453125 -0.28125q-0.890625 0 -2.3125 0.34375q-0.53125 0.125 -0.8125 0.125q-0.40625 0 -0.6875 -0.28125q-0.28125 -0.296875 -0.28125 -0.734375q0 -0.265625 0.09375 -0.4375q0.109375 -0.1875 0.28125 -0.296875q0.171875 -0.125 0.734375 -0.28125q0.75 -0.203125 1.515625 -0.3125q0.765625 -0.125 1.390625 -0.125q1.875 0 2.90625 0.8125q1.03125 0.796875 1.03125 2.1875l0 4.125l0.328125 0q0.734375 0 1.03125 0.28125q0.3125 0.265625 0.3125 0.71875q0 0.4375 -0.3125 0.71875q-0.296875 0.28125 -1.03125 0.28125l-2.34375 0zm0 -3.578125q-1.1875 -0.234375 -2.203125 -0.234375q-1.234375 0 -2.109375 0.59375q-0.546875 0.375 -0.546875 0.765625q0 0.28125 0.265625 0.453125q0.484375 0.328125 1.34375 0.328125q0.71875 0 1.625 -0.28125q0.921875 -0.28125 1.625 -0.765625l0 -0.859375zm8.173828 -5.296875l0 0.6875q0.546875 -0.46875 1.203125 -0.703125q0.671875 -0.234375 1.4375 -0.234375q1.78125 0 2.8125 1.09375q0.828125 0.875 0.828125 2.3125l0 3.71875q0.625 0 0.921875 0.28125q0.3125 0.265625 0.3125 0.71875q0 0.4375 -0.3125 0.71875q-0.296875 0.28125 -1.03125 0.28125l-1.796875 0q-0.71875 0 -1.03125 -0.28125q-0.3125 -0.28125 -0.3125 -0.71875q0 -0.453125 0.296875 -0.71875q0.3125 -0.28125 0.953125 -0.28125l0 -3.78125q0 -0.65625 -0.359375 -0.953125q-0.453125 -0.390625 -1.375 -0.390625q-0.6875 0 -1.21875 0.265625q-0.515625 0.265625 -1.328125 1.140625l0 3.71875q0.78125 0 1.0 0.140625q0.484375 0.296875 0.484375 0.859375q0 0.4375 -0.3125 0.71875q-0.3125 0.28125 -1.03125 0.28125l-2.265625 0q-0.734375 0 -1.046875 -0.28125q-0.296875 -0.28125 -0.296875 -0.71875q0 -0.546875 0.46875 -0.859375q0.234375 -0.140625 1.0 -0.140625l0 -4.859375q-0.625 0 -0.9375 -0.28125q-0.296875 -0.296875 -0.296875 -0.734375q0 -0.4375 0.296875 -0.71875q0.3125 -0.28125 1.046875 -0.28125l1.890625 0zm16.236328 0.609375l0 -0.609375l2.34375 0q0.71875 0 1.03125 0.28125q0.3125 0.28125 0.3125 0.734375q0 0.4375 -0.3125 0.71875q-0.3125 0.28125 -1.03125 0.28125l-0.34375 0l0 7.28125q0 1.046875 -0.453125 1.828125q-0.4375 0.796875 -1.359375 1.359375q-0.90625 0.578125 -2.0625 0.578125l-2.265625 0q-0.71875 0 -1.03125 -0.28125q-0.3125 -0.28125 -0.3125 -0.71875q0 -0.453125 0.3125 -0.734375q0.3125 -0.28125 1.03125 -0.28125l2.203125 0q0.921875 0 1.421875 -0.5q0.515625 -0.484375 0.515625 -1.25l0 -0.984375q-0.65625 0.4375 -1.359375 0.640625q-0.6875 0.21875 -1.40625 0.21875q-2.03125 0 -3.421875 -1.359375q-1.375 -1.359375 -1.375 -3.359375q0 -2.015625 1.375 -3.375q1.390625 -1.359375 3.421875 -1.359375q0.765625 0 1.453125 0.21875q0.6875 0.21875 1.3125 0.671875zm-0.015625 3.828125q0 -1.09375 -0.8125 -1.90625q-0.8125 -0.8125 -1.953125 -0.8125q-1.140625 0 -1.96875 0.8125q-0.8125 0.8125 -0.8125 1.90625q0 1.109375 0.8125 1.921875q0.828125 0.8125 1.96875 0.8125q1.140625 0 1.953125 -0.8125q0.8125 -0.8125 0.8125 -1.921875zm14.845703 1.015625l-8.21875 0q0.3125 0.78125 1.109375 1.265625q0.796875 0.46875 2.15625 0.46875q1.109375 0 2.953125 -0.46875q0.765625 -0.203125 1.0625 -0.203125q0.390625 0 0.65625 0.296875q0.28125 0.28125 0.28125 0.703125q0 0.390625 -0.28125 0.671875q-0.390625 0.359375 -1.90625 0.6875q-1.515625 0.328125 -2.921875 0.328125q-2.390625 0 -3.84375 -1.359375q-1.4375 -1.359375 -1.4375 -3.34375q0 -2.109375 1.5625 -3.421875q1.5625 -1.328125 3.59375 -1.328125q1.21875 0 2.234375 0.4375q1.015625 0.421875 1.515625 0.90625q0.703125 0.734375 1.171875 1.796875q0.3125 0.734375 0.3125 1.71875l0 0.84375zm-2.21875 -2.0q-0.46875 -0.859375 -1.21875 -1.28125q-0.734375 -0.421875 -1.75 -0.421875q-1.015625 0 -1.765625 0.421875q-0.734375 0.421875 -1.203125 1.28125l5.9375 0zm8.783203 -3.453125l0 1.25q1.25 -0.90625 1.96875 -1.203125q0.734375 -0.296875 1.375 -0.296875q0.96875 0 1.890625 0.71875q0.625 0.484375 0.625 1.0q0 0.421875 -0.296875 0.71875q-0.296875 0.296875 -0.71875 0.296875q-0.375 0 -0.78125 -0.359375q-0.40625 -0.375 -0.734375 -0.375q-0.421875 0 -1.25 0.53125q-0.828125 0.515625 -2.078125 1.578125l0 3.015625l2.84375 0q0.71875 0 1.03125 0.28125q0.3125 0.265625 0.3125 0.71875q0 0.4375 -0.3125 0.71875q-0.3125 0.28125 -1.03125 0.28125l-6.046875 0q-0.71875 0 -1.03125 -0.28125q-0.296875 -0.28125 -0.296875 -0.71875q0 -0.453125 0.296875 -0.71875q0.3125 -0.28125 1.03125 -0.28125l1.1875 0l0 -4.859375l-0.71875 0q-0.71875 0 -1.03125 -0.28125q-0.296875 -0.28125 -0.296875 -0.734375q0 -0.4375 0.296875 -0.71875q0.3125 -0.28125 1.03125 -0.28125l2.734375 0z" fill-rule="nonzero"/><path fill="#000000" fill-opacity="0.0" d="m37.795277 75.59055l188.97638 0l0 113.385826l-188.97638 0z" fill-rule="evenodd"/><path fill="#000000" d="m50.3109 102.681175l0 3.28125l1.203125 0q0.71875 0 1.03125 0.28125q0.3125 0.28125 0.3125 0.734375q0 0.4375 -0.3125 0.71875q-0.3125 0.28125 -1.03125 0.28125l-3.546875 0q-0.71875 0 -1.03125 -0.28125q-0.3125 -0.28125 -0.3125 -0.71875q0 -0.453125 0.3125 -0.734375q0.3125 -0.28125 1.03125 -0.28125l0.34375 0l0 -9.03125l-0.34375 0q-0.71875 0 -1.03125 -0.28125q-0.3125 -0.28125 -0.3125 -0.734375q0 -0.4375 0.3125 -0.71875q0.3125 -0.28125 1.03125 -0.28125l2.34375 0l0 0.6875q0.703125 -0.46875 1.453125 -0.703125q0.75 -0.234375 1.546875 -0.234375q2.046875 0 3.484375 1.390625q1.453125 1.390625 1.453125 3.1875q0 1.984375 -1.703125 3.265625q-1.421875 1.078125 -3.21875 1.078125q-0.765625 0 -1.515625 -0.21875q-0.75 -0.234375 -1.5 -0.6875zm5.9375 -3.4375q0 -0.421875 -0.328125 -1.0625q-0.328125 -0.65625 -1.03125 -1.078125q-0.6875 -0.4375 -1.609375 -0.4375q-1.5 0 -2.375 1.125q-0.59375 0.765625 -0.59375 1.484375q0 0.796875 0.84375 1.5625q0.859375 0.75 2.125 0.75q1.265625 0 2.109375 -0.75q0.859375 -0.765625 0.859375 -1.59375zm8.142574 -4.328125l0 1.25q1.25 -0.90625 1.96875 -1.203125q0.734375 -0.296875 1.375 -0.296875q0.96875 0 1.890625 0.71875q0.625 0.484375 0.625 1.0q0 0.421875 -0.296875 0.71875q-0.296875 0.296875 -0.71875 0.296875q-0.375 0 -0.78125 -0.359375q-0.40625 -0.375 -0.734375 -0.375q-0.421875 0 -1.25 0.53125q-0.828125 0.515625 -2.078125 1.578125l0 3.015625l2.84375 0q0.71875 0 1.03125 0.28125q0.3125 0.265625 0.3125 0.71875q0 0.4375 -0.3125 0.71875q-0.3125 0.28125 -1.03125 0.28125l-6.046871 0q-0.71875 0 -1.03125 -0.28125q-0.296875 -0.28125 -0.296875 -0.71875q0 -0.453125 0.296875 -0.71875q0.3125 -0.28125 1.03125 -0.28125l1.1875 0l0 -4.859375l-0.71875 0q-0.71875 0 -1.03125 -0.28125q-0.296875 -0.28125 -0.296875 -0.734375q0 -0.4375 0.296875 -0.71875q0.3125 -0.28125 1.03125 -0.28125l2.7343712 0zm17.439453 5.453125l-8.21875 0q0.3125 0.78125 1.109375 1.265625q0.796875 0.46875 2.15625 0.46875q1.109375 0 2.953125 -0.46875q0.765625 -0.203125 1.0625 -0.203125q0.390625 0 0.65625 0.296875q0.28125 0.28125 0.28125 0.703125q0 0.390625 -0.28125 0.671875q-0.390625 0.359375 -1.90625 0.6875q-1.515625 0.328125 -2.921875 0.328125q-2.390625 0 -3.84375 -1.359375q-1.4375 -1.359375 -1.4375 -3.34375q0 -2.109375 1.5625 -3.421875q1.5625 -1.328125 3.59375 -1.328125q1.21875 0 2.234375 0.4375q1.015625 0.421875 1.515625 0.90625q0.703125 0.734375 1.171875 1.796875q0.3125 0.734375 0.3125 1.71875l0 0.84375zm-2.21875 -2.0q-0.46875 -0.859375 -1.21875 -1.28125q-0.734375 -0.421875 -1.75 -0.421875q-1.015625 0 -1.765625 0.421875q-0.734375 0.421875 -1.203125 1.28125l5.9375 0zm7.158203 -3.453125l0 0.6875q0.546875 -0.46875 1.203125 -0.703125q0.671875 -0.234375 1.4375 -0.234375q1.78125 0 2.8125 1.09375q0.828125 0.875 0.828125 2.3125l0 3.71875q0.625 0 0.921875 0.28125q0.3125 0.265625 0.3125 0.71875q0 0.4375 -0.3125 0.71875q-0.296875 0.28125 -1.03125 0.28125l-1.796875 0q-0.71875 0 -1.03125 -0.28125q-0.3125 -0.28125 -0.3125 -0.71875q0 -0.453125 0.296875 -0.71875q0.3125 -0.28125 0.953125 -0.28125l0 -3.78125q0 -0.65625 -0.359375 -0.953125q-0.453125 -0.390625 -1.375 -0.390625q-0.6875 0 -1.21875 0.265625q-0.515625 0.265625 -1.328125 1.140625l0 3.71875q0.78125 0 1.0 0.140625q0.484375 0.296875 0.484375 0.859375q0 0.4375 -0.3125 0.71875q-0.3125 0.28125 -1.03125 0.28125l-2.265625 0q-0.734375 0 -1.046875 -0.28125q-0.296875 -0.28125 -0.296875 -0.71875q0 -0.546875 0.46875 -0.859375q0.234375 -0.140625 1.0 -0.140625l0 -4.859375q-0.625 0 -0.9375 -0.28125q-0.296875 -0.296875 -0.296875 -0.734375q0 -0.4375 0.296875 -0.71875q0.3125 -0.28125 1.046875 -0.28125l1.890625 0zm19.236328 4.609375q0 1.15625 -0.640625 2.234375q-0.640625 1.078125 -1.90625 1.71875q-1.265625 0.640625 -2.640625 0.640625q-1.359375 0 -2.609375 -0.625q-1.25 -0.640625 -1.90625 -1.71875q-0.65625 -1.09375 -0.65625 -2.265625q0 -1.203125 0.65625 -2.359375q0.671875 -1.15625 1.90625 -1.8125q1.25 -0.671875 2.609375 -0.671875q1.375 0 2.625 0.671875q1.265625 0.671875 1.90625 1.828125q0.65625 1.140625 0.65625 2.359375zm-2.0 0q0 -0.953125 -0.703125 -1.765625q-0.9375 -1.09375 -2.484375 -1.09375q-1.359375 0 -2.265625 0.875q-0.90625 0.859375 -0.90625 2.0q0 0.9375 0.90625 1.75q0.921875 0.8125 2.265625 0.8125q1.34375 0 2.265625 -0.8125q0.921875 -0.8125 0.921875 -1.765625zm5.705078 -4.609375l0 0.578125q0.5 -0.484375 0.890625 -0.65625q0.390625 -0.1875 0.90625 -0.1875q0.4375 0 0.859375 0.21875q0.4375 0.203125 0.859375 0.640625q0.515625 -0.4375 1.046875 -0.640625q0.53125 -0.203125 1.09375 -0.203125q1.109375 0 1.796875 0.59375q0.921875 0.78125 0.921875 2.046875l0 4.484375q0.625 0 0.921875 0.28125q0.3125 0.28125 0.3125 0.71875q0 0.4375 -0.3125 0.71875q-0.296875 0.28125 -1.015625 0.28125l-1.90625 0l0 -6.3125q0 -0.46875 -0.171875 -0.640625q-0.15625 -0.171875 -0.5 -0.171875q-0.34375 0 -0.625 0.171875q-0.359375 0.25 -0.875 0.921875l0 4.03125q0.625 0 0.921875 0.28125q0.3125 0.28125 0.3125 0.71875q0 0.4375 -0.3125 0.71875q-0.296875 0.28125 -1.015625 0.28125l-1.90625 0l0 -6.3125q0 -0.453125 -0.171875 -0.625q-0.171875 -0.1875 -0.515625 -0.1875q-0.34375 0 -0.6875 0.21875q-0.34375 0.21875 -0.828125 0.875l0 4.03125q0.625 0 0.9375 0.28125q0.3125 0.28125 0.3125 0.71875q0 0.4375 -0.3125 0.71875q-0.3125 0.28125 -1.03125 0.28125l-1.8125 0q-0.71875 0 -1.015625 -0.28125q-0.3125 -0.28125 -0.3125 -0.71875q0 -0.453125 0.3125 -0.71875q0.296875 -0.28125 0.921875 -0.28125l0 -4.859375q-0.625 0 -0.921875 -0.28125q-0.3125 -0.296875 -0.3125 -0.734375q0 -0.4375 0.3125 -0.71875q0.296875 -0.28125 1.015625 -0.28125l1.90625 0z" fill-rule="nonzero"/><path fill="#000000" d="m52.77965 144.93117l0 4.859375l2.859375 0q0.71875 0 1.015625 0.28125q0.3125 0.265625 0.3125 0.71875q0 0.4375 -0.3125 0.71875q-0.296875 0.28125 -1.015625 0.28125l-6.046875 0q-0.71875 0 -1.03125 -0.28125q-0.3125 -0.28125 -0.3125 -0.71875q0 -0.453125 0.3125 -0.71875q0.3125 -0.28125 1.03125 -0.28125l1.1875 0l0 -4.859375l-0.953125 0q-0.71875 0 -1.03125 -0.28125q-0.3125 -0.28125 -0.3125 -0.734375q0 -0.4375 0.3125 -0.71875q0.3125 -0.28125 1.03125 -0.28125l0.953125 0l0 -0.75q0 -1.3125 0.984375 -2.171875q0.984375 -0.875 2.84375 -0.875q0.828125 0 1.921875 0.15625q1.09375 0.15625 1.390625 0.4375q0.3125 0.265625 0.3125 0.6875q0 0.46875 -0.28125 0.75q-0.265625 0.28125 -0.671875 0.28125q-0.1875 0 -0.546875 -0.0625q-1.25 -0.25 -2.203125 -0.25q-1.0 0 -1.375 0.3125q-0.375 0.296875 -0.375 0.734375l0 0.75l3.09375 0q0.71875 0 1.015625 0.28125q0.3125 0.28125 0.3125 0.734375q0 0.4375 -0.3125 0.71875q-0.296875 0.28125 -1.015625 0.28125l-3.09375 0zm13.814449 6.859375l0 -0.46875q-0.75 0.40625 -1.65625 0.59375q-0.90625 0.203125 -1.6406212 0.203125q-1.625 0 -2.625 -0.84375q-1.0 -0.859375 -1.0 -1.890625q0 -1.265625 1.28125 -2.34375q1.28125 -1.078125 3.5468712 -1.078125q0.90625 0 2.09375 0.1875l0 -0.46875q0 -0.453125 -0.390625 -0.734375q-0.375 -0.28125 -1.453125 -0.28125q-0.8906212 0 -2.3124962 0.34375q-0.53125 0.125 -0.8125 0.125q-0.40625 0 -0.6875 -0.28125q-0.28125 -0.296875 -0.28125 -0.734375q0 -0.265625 0.09375 -0.4375q0.109375 -0.1875 0.28125 -0.296875q0.171875 -0.125 0.734375 -0.28125q0.75 -0.203125 1.515625 -0.3125q0.7656212 -0.125 1.3906212 -0.125q1.875 0 2.90625 0.8125q1.03125 0.796875 1.03125 2.1875l0 4.125l0.328125 0q0.734375 0 1.03125 0.28125q0.3125 0.265625 0.3125 0.71875q0 0.4375 -0.3125 0.71875q-0.296875 0.28125 -1.03125 0.28125l-2.34375 0zm0 -3.578125q-1.1875 -0.234375 -2.203125 -0.234375q-1.2343712 0 -2.1093712 0.59375q-0.546875 0.375 -0.546875 0.765625q0 0.28125 0.265625 0.453125q0.484375 0.328125 1.34375 0.328125q0.7187462 0 1.6249962 -0.28125q0.921875 -0.28125 1.625 -0.765625l0 -0.859375zm7.689453 -9.09375l0 4.5q0.71875 -0.484375 1.46875 -0.71875q0.765625 -0.234375 1.546875 -0.234375q2.078125 0 3.515625 1.4375q1.453125 1.421875 1.453125 3.453125q0 1.953125 -1.375 3.265625q-1.375 1.296875 -3.640625 1.296875q-0.796875 0 -1.546875 -0.21875q-0.734375 -0.203125 -1.421875 -0.59375l0 0.484375l-2.34375 0q-0.734375 0 -1.046875 -0.28125q-0.296875 -0.28125 -0.296875 -0.71875q0 -0.453125 0.3125 -0.71875q0.3125 -0.28125 1.03125 -0.28125l0.328125 0l0 -8.671875l-0.328125 0q-0.734375 0 -1.046875 -0.265625q-0.296875 -0.28125 -0.296875 -0.734375q0 -0.4375 0.296875 -0.71875q0.3125 -0.28125 1.046875 -0.28125l2.34375 0zm5.984375 8.5q0 -1.234375 -0.875 -2.09375q-0.875 -0.859375 -2.125 -0.859375q-1.25 0 -2.125 0.859375q-0.859375 0.859375 -0.859375 2.0625q0 1.109375 0.78125 1.8125q0.78125 0.703125 2.203125 0.703125q1.421875 0 2.203125 -0.703125q0.796875 -0.703125 0.796875 -1.78125zm8.126953 -4.703125l0 1.25q1.25 -0.90625 1.96875 -1.203125q0.734375 -0.296875 1.375 -0.296875q0.96875 0 1.890625 0.71875q0.625 0.484375 0.625 1.0q0 0.421875 -0.296875 0.71875q-0.296875 0.296875 -0.71875 0.296875q-0.375 0 -0.78125 -0.359375q-0.40625 -0.375 -0.734375 -0.375q-0.421875 0 -1.25 0.53125q-0.828125 0.515625 -2.078125 1.578125l0 3.015625l2.84375 0q0.71875 0 1.03125 0.28125q0.3125 0.265625 0.3125 0.71875q0 0.4375 -0.3125 0.71875q-0.3125 0.28125 -1.03125 0.28125l-6.046875 0q-0.71875 0 -1.03125 -0.28125q-0.296875 -0.28125 -0.296875 -0.71875q0 -0.453125 0.296875 -0.71875q0.3125 -0.28125 1.03125 -0.28125l1.1875 0l0 -4.859375l-0.71875 0q-0.71875 0 -1.03125 -0.28125q-0.296875 -0.28125 -0.296875 -0.734375q0 -0.4375 0.296875 -0.71875q0.3125 -0.28125 1.03125 -0.28125l2.734375 0zm13.126953 -3.796875l0 2.125l-2.375 0l0 -2.125l2.375 0zm0.28125 3.796875l0 6.875l2.390625 0q0.734375 0 1.03125 0.28125q0.3125 0.265625 0.3125 0.71875q0 0.4375 -0.3125 0.71875q-0.296875 0.28125 -1.03125 0.28125l-6.796875 0q-0.734375 0 -1.046875 -0.28125q-0.296875 -0.28125 -0.296875 -0.71875q0 -0.453125 0.296875 -0.71875q0.3125 -0.28125 1.046875 -0.28125l2.390625 0l0 -4.859375l-1.609375 0q-0.703125 0 -1.015625 -0.28125q-0.3125 -0.28125 -0.3125 -0.734375q0 -0.4375 0.296875 -0.71875q0.3125 -0.28125 1.03125 -0.28125l3.625 0zm15.642578 2.015625l0 9.03125l0.359375 0q0.703125 0 1.015625 0.28125q0.3125 0.28125 0.3125 0.734375q0 0.4375 -0.3125 0.71875q-0.296875 0.28125 -1.015625 0.28125l-3.546875 0q-0.71875 0 -1.03125 -0.28125q-0.3125 -0.28125 -0.3125 -0.71875q0 -0.453125 0.3125 -0.734375q0.3125 -0.28125 1.03125 -0.28125l1.1875 0l0 -3.28125q-0.734375 0.453125 -1.5 0.6875q-0.75 0.21875 -1.515625 0.21875q-1.78125 0 -3.21875 -1.078125q-1.703125 -1.28125 -1.703125 -3.265625q0 -1.796875 1.4375 -3.1875q1.453125 -1.390625 3.515625 -1.390625q0.796875 0 1.53125 0.234375q0.75 0.234375 1.453125 0.703125l0 -0.6875l2.359375 0q0.703125 0 1.015625 0.28125q0.3125 0.28125 0.3125 0.734375q0 0.4375 -0.3125 0.71875q-0.296875 0.28125 -1.015625 0.28125l-0.359375 0zm-2.0 2.3125q0 -0.421875 -0.328125 -1.0625q-0.328125 -0.65625 -1.03125 -1.078125q-0.6875 -0.4375 -1.609375 -0.4375q-1.5 0 -2.375 1.125q-0.59375 0.765625 -0.59375 1.484375q0 0.796875 0.859375 1.5625q0.859375 0.75 2.109375 0.75q1.265625 0 2.109375 -0.75q0.859375 -0.765625 0.859375 -1.59375zm13.611328 -4.328125l0 6.875q0.640625 0 0.9375 0.28125q0.3125 0.28125 0.3125 0.71875q0 0.4375 -0.3125 0.71875q-0.3125 0.28125 -1.03125 0.28125l-1.90625 0l0 -0.453125q-0.859375 0.390625 -1.640625 0.578125q-0.78125 0.203125 -1.484375 0.203125q-0.984375 0 -1.703125 -0.421875q-0.71875 -0.421875 -1.140625 -1.140625q-0.3125 -0.53125 -0.3125 -1.328125l0 -4.296875l-0.34375 0q-0.71875 0 -1.03125 -0.28125q-0.296875 -0.28125 -0.296875 -0.734375q0 -0.4375 0.296875 -0.71875q0.3125 -0.28125 1.03125 -0.28125l2.34375 0l0 5.96875q0 0.625 0.3125 0.921875q0.3125 0.296875 0.9375 0.296875q0.609375 0 1.3125 -0.234375q0.703125 -0.234375 1.71875 -0.859375l0 -4.078125l-0.71875 0q-0.71875 0 -1.03125 -0.28125q-0.3125 -0.28125 -0.3125 -0.734375q0 -0.4375 0.3125 -0.71875q0.3125 -0.28125 1.03125 -0.28125l2.71875 0zm12.783203 5.453125l-8.21875 0q0.3125 0.78125 1.109375 1.265625q0.796875 0.46875 2.15625 0.46875q1.109375 0 2.953125 -0.46875q0.765625 -0.203125 1.0625 -0.203125q0.390625 0 0.65625 0.296875q0.28125 0.28125 0.28125 0.703125q0 0.390625 -0.28125 0.671875q-0.390625 0.359375 -1.90625 0.6875q-1.515625 0.328125 -2.921875 0.328125q-2.390625 0 -3.84375 -1.359375q-1.4375 -1.359375 -1.4375 -3.34375q0 -2.109375 1.5625 -3.421875q1.5625 -1.328125 3.59375 -1.328125q1.21875 0 2.234375 0.4375q1.015625 0.421875 1.515625 0.90625q0.703125 0.734375 1.171875 1.796875q0.3125 0.734375 0.3125 1.71875l0 0.84375zm-2.21875 -2.0q-0.46875 -0.859375 -1.21875 -1.28125q-0.734375 -0.421875 -1.75 -0.421875q-1.015625 0 -1.765625 0.421875q-0.734375 0.421875 -1.203125 1.28125l5.9375 0zm8.783203 -3.453125l0 1.25q1.25 -0.90625 1.96875 -1.203125q0.734375 -0.296875 1.375 -0.296875q0.96875 0 1.890625 0.71875q0.625 0.484375 0.625 1.0q0 0.421875 -0.296875 0.71875q-0.296875 0.296875 -0.71875 0.296875q-0.375 0 -0.78125 -0.359375q-0.40625 -0.375 -0.734375 -0.375q-0.421875 0 -1.25 0.53125q-0.828125 0.515625 -2.078125 1.578125l0 3.015625l2.84375 0q0.71875 0 1.03125 0.28125q0.3125 0.265625 0.3125 0.71875q0 0.4375 -0.3125 0.71875q-0.3125 0.28125 -1.03125 0.28125l-6.046875 0q-0.71875 0 -1.03125 -0.28125q-0.296875 -0.28125 -0.296875 -0.71875q0 -0.453125 0.296875 -0.71875q0.3125 -0.28125 1.03125 -0.28125l1.1875 0l0 -4.859375l-0.71875 0q-0.71875 0 -1.03125 -0.28125q-0.296875 -0.28125 -0.296875 -0.734375q0 -0.4375 0.296875 -0.71875q0.3125 -0.28125 1.03125 -0.28125l2.734375 0zm11.689453 4.015625q0 -1.71875 0.5625 -3.46875q0.421875 -1.28125 1.3125 -2.859375q0.625 -1.140625 0.921875 -1.390625q0.3125 -0.265625 0.6875 -0.265625q0.421875 0 0.71875 0.296875q0.296875 0.296875 0.296875 0.703125q0 0.28125 -0.234375 0.671875q-1.0625 1.734375 -1.546875 3.25q-0.484375 1.5 -0.484375 3.0625q0 1.5625 0.484375 3.078125q0.484375 1.5 1.546875 3.234375q0.234375 0.390625 0.234375 0.671875q0 0.421875 -0.296875 0.703125q-0.296875 0.296875 -0.71875 0.296875q-0.359375 0 -0.640625 -0.234375q-0.390625 -0.34375 -1.03125 -1.53125q-0.9375 -1.734375 -1.265625 -2.859375q-0.546875 -1.71875 -0.546875 -3.359375zm13.580078 0q0 1.703125 -0.5625 3.46875q-0.421875 1.28125 -1.3125 2.859375q-0.625 1.125 -0.9375 1.390625q-0.296875 0.265625 -0.671875 0.265625q-0.421875 0 -0.71875 -0.296875q-0.296875 -0.28125 -0.296875 -0.703125q0 -0.28125 0.234375 -0.671875q1.0625 -1.734375 1.546875 -3.234375q0.484375 -1.515625 0.484375 -3.078125q0 -1.5625 -0.484375 -3.0625q-0.484375 -1.515625 -1.546875 -3.25q-0.234375 -0.390625 -0.234375 -0.671875q0 -0.40625 0.296875 -0.703125q0.296875 -0.296875 0.71875 -0.296875q0.359375 0 0.640625 0.234375q0.390625 0.328125 1.03125 1.53125q0.9375 1.734375 1.265625 2.84375q0.546875 1.734375 0.546875 3.375z" fill-rule="nonzero"/><path fill="#000000" d="m50.27965 163.11867l0 4.5q0.71875 -0.484375 1.46875 -0.71875q0.765625 -0.234375 1.546875 -0.234375q2.078125 0 3.515625 1.4375q1.453125 1.421875 1.453125 3.453125q0 1.953125 -1.375 3.265625q-1.375 1.296875 -3.640625 1.296875q-0.796875 0 -1.546875 -0.21875q-0.734375 -0.203125 -1.421875 -0.59375l0 0.484375l-2.34375 0q-0.734375 0 -1.046875 -0.28125q-0.296875 -0.28125 -0.296875 -0.71875q0 -0.453125 0.3125 -0.71875q0.3125 -0.28125 1.03125 -0.28125l0.328125 0l0 -8.671875l-0.328125 0q-0.734375 0 -1.046875 -0.265625q-0.296875 -0.28125 -0.296875 -0.734375q0 -0.4375 0.296875 -0.71875q0.3125 -0.28125 1.046875 -0.28125l2.34375 0zm5.984375 8.5q0 -1.234375 -0.875 -2.09375q-0.875 -0.859375 -2.125 -0.859375q-1.25 0 -2.125 0.859375q-0.859375 0.859375 -0.859375 2.0625q0 1.109375 0.78125 1.8125q0.78125 0.703125 2.203125 0.703125q1.421875 0 2.203125 -0.703125q0.796875 -0.703125 0.796875 -1.78125zm9.251949 -8.5l0 2.125l-2.3749962 0l0 -2.125l2.3749962 0zm0.28125 3.796875l0 6.875l2.390625 0q0.734375 0 1.03125 0.28125q0.3125 0.265625 0.3125 0.71875q0 0.4375 -0.3125 0.71875q-0.296875 0.28125 -1.03125 0.28125l-6.796871 0q-0.734375 0 -1.046875 -0.28125q-0.296875 -0.28125 -0.296875 -0.71875q0 -0.453125 0.296875 -0.71875q0.3125 -0.28125 1.046875 -0.28125l2.390625 0l0 -4.859375l-1.609375 0q-0.703125 0 -1.015625 -0.28125q-0.3125 -0.28125 -0.3125 -0.734375q0 -0.4375 0.296875 -0.71875q0.3125 -0.28125 1.03125 -0.28125l3.6249962 0zm12.001953 -3.796875l0 10.671875l2.40625 0q0.71875 0 1.03125 0.28125q0.3125 0.265625 0.3125 0.71875q0 0.4375 -0.3125 0.71875q-0.3125 0.28125 -1.03125 0.28125l-6.8125 0q-0.71875 0 -1.03125 -0.28125q-0.296875 -0.28125 -0.296875 -0.71875q0 -0.453125 0.296875 -0.71875q0.3125 -0.28125 1.03125 -0.28125l2.40625 0l0 -8.671875l-1.609375 0q-0.71875 0 -1.03125 -0.265625q-0.3125 -0.28125 -0.3125 -0.734375q0 -0.4375 0.3125 -0.71875q0.3125 -0.28125 1.03125 -0.28125l3.609375 0zm12.798828 12.671875l0 -0.46875q-0.75 0.40625 -1.65625 0.59375q-0.90625 0.203125 -1.640625 0.203125q-1.625 0 -2.625 -0.84375q-1.0 -0.859375 -1.0 -1.890625q0 -1.265625 1.28125 -2.34375q1.28125 -1.078125 3.546875 -1.078125q0.90625 0 2.09375 0.1875l0 -0.46875q0 -0.453125 -0.390625 -0.734375q-0.375 -0.28125 -1.453125 -0.28125q-0.890625 0 -2.3125 0.34375q-0.53125 0.125 -0.8125 0.125q-0.40625 0 -0.6875 -0.28125q-0.28125 -0.296875 -0.28125 -0.734375q0 -0.265625 0.09375 -0.4375q0.109375 -0.1875 0.28125 -0.296875q0.171875 -0.125 0.734375 -0.28125q0.75 -0.203125 1.515625 -0.3125q0.765625 -0.125 1.390625 -0.125q1.875 0 2.90625 0.8125q1.03125 0.796875 1.03125 2.1875l0 4.125l0.328125 0q0.734375 0 1.03125 0.28125q0.3125 0.265625 0.3125 0.71875q0 0.4375 -0.3125 0.71875q-0.296875 0.28125 -1.03125 0.28125l-2.34375 0zm0 -3.578125q-1.1875 -0.234375 -2.203125 -0.234375q-1.234375 0 -2.109375 0.59375q-0.546875 0.375 -0.546875 0.765625q0 0.28125 0.265625 0.453125q0.484375 0.328125 1.34375 0.328125q0.71875 0 1.625 -0.28125q0.921875 -0.28125 1.625 -0.765625l0 -0.859375zm8.173828 -5.296875l0 0.6875q0.546875 -0.46875 1.203125 -0.703125q0.671875 -0.234375 1.4375 -0.234375q1.78125 0 2.8125 1.09375q0.828125 0.875 0.828125 2.3125l0 3.71875q0.625 0 0.921875 0.28125q0.3125 0.265625 0.3125 0.71875q0 0.4375 -0.3125 0.71875q-0.296875 0.28125 -1.03125 0.28125l-1.796875 0q-0.71875 0 -1.03125 -0.28125q-0.3125 -0.28125 -0.3125 -0.71875q0 -0.453125 0.296875 -0.71875q0.3125 -0.28125 0.953125 -0.28125l0 -3.78125q0 -0.65625 -0.359375 -0.953125q-0.453125 -0.390625 -1.375 -0.390625q-0.6875 0 -1.21875 0.265625q-0.515625 0.265625 -1.328125 1.140625l0 3.71875q0.78125 0 1.0 0.140625q0.484375 0.296875 0.484375 0.859375q0 0.4375 -0.3125 0.71875q-0.3125 0.28125 -1.03125 0.28125l-2.265625 0q-0.734375 0 -1.046875 -0.28125q-0.296875 -0.28125 -0.296875 -0.71875q0 -0.546875 0.46875 -0.859375q0.234375 -0.140625 1.0 -0.140625l0 -4.859375q-0.625 0 -0.9375 -0.28125q-0.296875 -0.296875 -0.296875 -0.734375q0 -0.4375 0.296875 -0.71875q0.3125 -0.28125 1.046875 -0.28125l1.890625 0zm13.314453 4.015625q0 -1.71875 0.5625 -3.46875q0.421875 -1.28125 1.3125 -2.859375q0.625 -1.140625 0.921875 -1.390625q0.3125 -0.265625 0.6875 -0.265625q0.421875 0 0.71875 0.296875q0.296875 0.296875 0.296875 0.703125q0 0.28125 -0.234375 0.671875q-1.0625 1.734375 -1.546875 3.25q-0.484375 1.5 -0.484375 3.0625q0 1.5625 0.484375 3.078125q0.484375 1.5 1.546875 3.234375q0.234375 0.390625 0.234375 0.671875q0 0.421875 -0.296875 0.703125q-0.296875 0.296875 -0.71875 0.296875q-0.359375 0 -0.640625 -0.234375q-0.390625 -0.34375 -1.03125 -1.53125q-0.9375 -1.734375 -1.265625 -2.859375q-0.546875 -1.71875 -0.546875 -3.359375zm13.580078 0q0 1.703125 -0.5625 3.46875q-0.421875 1.28125 -1.3125 2.859375q-0.625 1.125 -0.9375 1.390625q-0.296875 0.265625 -0.671875 0.265625q-0.421875 0 -0.71875 -0.296875q-0.296875 -0.28125 -0.296875 -0.703125q0 -0.28125 0.234375 -0.671875q1.0625 -1.734375 1.546875 -3.234375q0.484375 -1.515625 0.484375 -3.078125q0 -1.5625 -0.484375 -3.0625q-0.484375 -1.515625 -1.546875 -3.25q-0.234375 -0.390625 -0.234375 -0.671875q0 -0.40625 0.296875 -0.703125q0.296875 -0.296875 0.71875 -0.296875q0.359375 0 0.640625 0.234375q0.390625 0.328125 1.03125 1.53125q0.9375 1.734375 1.265625 2.84375q0.546875 1.734375 0.546875 3.375z" fill-rule="nonzero"/><path fill="#9fc5e8" d="m302.3622 37.795277l188.97638 0l0 37.795277l-188.97638 0z" fill-rule="evenodd"/><path fill="#000000" d="m359.68732 59.830414l0 2.0625l2.015625 0q0.734375 0 1.03125 0.28125q0.3125 0.265625 0.3125 0.71875q0 0.4375 -0.3125 0.71875q-0.296875 0.28125 -1.03125 0.28125l-4.328125 0q-0.71875 0 -1.03125 -0.28125q-0.3125 -0.28125 -0.3125 -0.71875q0 -0.453125 0.3125 -0.71875q0.3125 -0.28125 1.03125 -0.28125l0.3125 0l0 -7.828125l-0.3125 0q-0.71875 0 -1.03125 -0.28125q-0.3125 -0.28125 -0.3125 -0.734375q0 -0.453125 0.3125 -0.71875q0.3125 -0.28125 1.03125 -0.28125l4.609375 0q2.03125 0 3.21875 1.109375q1.1875 1.109375 1.1875 2.703125q0 0.875 -0.40625 1.65625q-0.296875 0.59375 -1.015625 1.171875q-0.703125 0.5625 -1.4375 0.859375q-0.734375 0.28125 -1.953125 0.28125l-1.890625 0zm0 -2.0l1.859375 0q1.3125 0 2.078125 -0.59375q0.765625 -0.59375 0.765625 -1.421875q0 -0.703125 -0.625 -1.21875q-0.625 -0.53125 -1.765625 -0.53125l-2.3125 0l0 3.765625zm12.751953 -2.8125l0 1.25q1.25 -0.90625 1.96875 -1.203125q0.734375 -0.296875 1.375 -0.296875q0.96875 0 1.890625 0.71875q0.625 0.484375 0.625 1.0q0 0.421875 -0.296875 0.71875q-0.296875 0.296875 -0.71875 0.296875q-0.375 0 -0.78125 -0.359375q-0.40625 -0.375 -0.734375 -0.375q-0.421875 0 -1.25 0.53125q-0.828125 0.515625 -2.078125 1.578125l0 3.015625l2.84375 0q0.71875 0 1.03125 0.28125q0.3125 0.265625 0.3125 0.71875q0 0.4375 -0.3125 0.71875q-0.3125 0.28125 -1.03125 0.28125l-6.046875 0q-0.71875 0 -1.03125 -0.28125q-0.296875 -0.28125 -0.296875 -0.71875q0 -0.453125 0.296875 -0.71875q0.3125 -0.28125 1.03125 -0.28125l1.1875 0l0 -4.859375l-0.71875 0q-0.71875 0 -1.03125 -0.28125q-0.296875 -0.28125 -0.296875 -0.734375q0 -0.4375 0.296875 -0.71875q0.3125 -0.28125 1.03125 -0.28125l2.734375 0zm17.611328 4.609375q0 1.15625 -0.640625 2.234375q-0.640625 1.078125 -1.90625 1.71875q-1.265625 0.640625 -2.640625 0.640625q-1.359375 0 -2.609375 -0.625q-1.25 -0.640625 -1.90625 -1.71875q-0.65625 -1.09375 -0.65625 -2.265625q0 -1.203125 0.65625 -2.359375q0.671875 -1.15625 1.90625 -1.8125q1.25 -0.671875 2.609375 -0.671875q1.375 0 2.625 0.671875q1.265625 0.671875 1.90625 1.828125q0.65625 1.140625 0.65625 2.359375zm-2.0 0q0 -0.953125 -0.703125 -1.765625q-0.9375 -1.09375 -2.484375 -1.09375q-1.359375 0 -2.265625 0.875q-0.90625 0.859375 -0.90625 2.0q0 0.9375 0.90625 1.75q0.921875 0.8125 2.265625 0.8125q1.34375 0 2.265625 -0.8125q0.921875 -0.8125 0.921875 -1.765625zm13.392578 -8.40625l0 10.671875l0.34375 0q0.71875 0 1.03125 0.28125q0.3125 0.265625 0.3125 0.71875q0 0.4375 -0.3125 0.71875q-0.3125 0.28125 -1.03125 0.28125l-2.34375 0l0 -0.484375q-0.6875 0.390625 -1.4375 0.59375q-0.734375 0.21875 -1.546875 0.21875q-2.25 0 -3.625 -1.296875q-1.375 -1.3125 -1.375 -3.265625q0 -2.03125 1.4375 -3.453125q1.453125 -1.4375 3.53125 -1.4375q0.78125 0 1.53125 0.234375q0.75 0.234375 1.484375 0.71875l0 -2.5l-0.34375 0q-0.71875 0 -1.03125 -0.265625q-0.296875 -0.28125 -0.296875 -0.71875q0 -0.453125 0.296875 -0.734375q0.3125 -0.28125 1.03125 -0.28125l2.34375 0zm-2.0 8.5q0 -1.234375 -0.875 -2.09375q-0.859375 -0.859375 -2.125 -0.859375q-1.25 0 -2.125 0.859375q-0.859375 0.859375 -0.859375 2.0625q0 1.109375 0.78125 1.8125q0.78125 0.703125 2.203125 0.703125q1.421875 0 2.203125 -0.703125q0.796875 -0.703125 0.796875 -1.78125zm13.658203 -4.703125l0 6.875q0.640625 0 0.9375 0.28125q0.3125 0.28125 0.3125 0.71875q0 0.4375 -0.3125 0.71875q-0.3125 0.28125 -1.03125 0.28125l-1.90625 0l0 -0.453125q-0.859375 0.390625 -1.640625 0.578125q-0.78125 0.203125 -1.484375 0.203125q-0.984375 0 -1.703125 -0.421875q-0.71875 -0.421875 -1.140625 -1.140625q-0.3125 -0.53125 -0.3125 -1.328125l0 -4.296875l-0.34375 0q-0.71875 0 -1.03125 -0.28125q-0.296875 -0.28125 -0.296875 -0.734375q0 -0.4375 0.296875 -0.71875q0.3125 -0.28125 1.03125 -0.28125l2.34375 0l0 5.96875q0 0.625 0.3125 0.921875q0.3125 0.296875 0.9375 0.296875q0.609375 0 1.3125 -0.234375q0.703125 -0.234375 1.71875 -0.859375l0 -4.078125l-0.71875 0q-0.71875 0 -1.03125 -0.28125q-0.3125 -0.28125 -0.3125 -0.734375q0 -0.4375 0.3125 -0.71875q0.3125 -0.28125 1.03125 -0.28125l2.71875 0zm8.470703 -3.796875l0 2.125l-2.375 0l0 -2.125l2.375 0zm0.28125 3.796875l0 6.875l2.390625 0q0.734375 0 1.03125 0.28125q0.3125 0.265625 0.3125 0.71875q0 0.4375 -0.3125 0.71875q-0.296875 0.28125 -1.03125 0.28125l-6.796875 0q-0.734375 0 -1.046875 -0.28125q-0.296875 -0.28125 -0.296875 -0.71875q0 -0.453125 0.296875 -0.71875q0.3125 -0.28125 1.046875 -0.28125l2.390625 0l0 -4.859375l-1.609375 0q-0.703125 0 -1.015625 -0.28125q-0.3125 -0.28125 -0.3125 -0.734375q0 -0.4375 0.296875 -0.71875q0.3125 -0.28125 1.03125 -0.28125l3.625 0zm10.517578 2.015625l0 4.0q0 0.65625 0.25 0.859375q0.421875 0.3125 1.46875 0.3125q1.53125 0 2.828125 -0.640625q0.5 -0.265625 0.78125 -0.265625q0.390625 0 0.671875 0.296875q0.296875 0.296875 0.296875 0.71875q0 0.390625 -0.3125 0.671875q-0.46875 0.453125 -1.890625 0.84375q-1.40625 0.390625 -2.375 0.390625q-1.859375 0 -2.796875 -0.8125q-0.9375 -0.8125 -0.9375 -1.984375l0 -4.390625l-0.71875 0q-0.71875 0 -1.03125 -0.28125q-0.296875 -0.28125 -0.296875 -0.734375q0 -0.4375 0.296875 -0.71875q0.3125 -0.28125 1.03125 -0.28125l0.71875 0l0 -1.796875q0 -0.71875 0.28125 -1.03125q0.28125 -0.3125 0.734375 -0.3125q0.4375 0 0.71875 0.3125q0.28125 0.3125 0.28125 1.03125l0 1.796875l3.6875 0q0.734375 0 1.03125 0.28125q0.3125 0.28125 0.3125 0.734375q0 0.4375 -0.3125 0.71875q-0.296875 0.28125 -1.03125 0.28125l-3.6875 0z" fill-rule="nonzero"/><path fill="#000000" fill-opacity="0.0" d="m302.3622 75.59055l188.97638 0l0 113.385826l-188.97638 0z" fill-rule="evenodd"/><path fill="#000000" d="m315.33096 94.91555l0 0.6875q0.546875 -0.46875 1.203125 -0.703125q0.671875 -0.234375 1.4375 -0.234375q1.78125 0 2.8125 1.09375q0.828125 0.875 0.828125 2.3125l0 3.71875q0.625 0 0.921875 0.28125q0.3125 0.265625 0.3125 0.71875q0 0.4375 -0.3125 0.71875q-0.296875 0.28125 -1.03125 0.28125l-1.796875 0q-0.71875 0 -1.03125 -0.28125q-0.3125 -0.28125 -0.3125 -0.71875q0 -0.453125 0.296875 -0.71875q0.3125 -0.28125 0.953125 -0.28125l0 -3.78125q0 -0.65625 -0.359375 -0.953125q-0.453125 -0.390625 -1.375 -0.390625q-0.6875 0 -1.21875 0.265625q-0.515625 0.265625 -1.328125 1.140625l0 3.71875q0.78125 0 1.0 0.140625q0.484375 0.296875 0.484375 0.859375q0 0.4375 -0.3125 0.71875q-0.3125 0.28125 -1.03125 0.28125l-2.265625 0q-0.734375 0 -1.046875 -0.28125q-0.296875 -0.28125 -0.296875 -0.71875q0 -0.546875 0.46875 -0.859375q0.234375 -0.140625 1.0 -0.140625l0 -4.859375q-0.625 0 -0.9375 -0.28125q-0.296875 -0.296875 -0.296875 -0.734375q0 -0.4375 0.296875 -0.71875q0.3125 -0.28125 1.046875 -0.28125l1.890625 0zm19.236328 4.609375q0 1.15625 -0.640625 2.234375q-0.640625 1.078125 -1.90625 1.71875q-1.265625 0.640625 -2.640625 0.640625q-1.359375 0 -2.609375 -0.625q-1.25 -0.640625 -1.90625 -1.71875q-0.65625 -1.09375 -0.65625 -2.265625q0 -1.203125 0.65625 -2.359375q0.671875 -1.15625 1.90625 -1.8125q1.25 -0.671875 2.609375 -0.671875q1.375 0 2.625 0.671875q1.265625 0.671875 1.90625 1.828125q0.65625 1.140625 0.65625 2.359375zm-2.0 0q0 -0.953125 -0.703125 -1.765625q-0.9375 -1.09375 -2.484375 -1.09375q-1.359375 0 -2.265625 0.875q-0.90625 0.859375 -0.90625 2.0q0 0.9375 0.90625 1.75q0.921875 0.8125 2.265625 0.8125q1.34375 0 2.265625 -0.8125q0.921875 -0.8125 0.921875 -1.765625zm5.705078 -4.609375l0 0.578125q0.5 -0.484375 0.890625 -0.65625q0.390625 -0.1875 0.90625 -0.1875q0.4375 0 0.859375 0.21875q0.4375 0.203125 0.859375 0.640625q0.515625 -0.4375 1.046875 -0.640625q0.53125 -0.203125 1.09375 -0.203125q1.109375 0 1.796875 0.59375q0.921875 0.78125 0.921875 2.046875l0 4.484375q0.625 0 0.921875 0.28125q0.3125 0.28125 0.3125 0.71875q0 0.4375 -0.3125 0.71875q-0.296875 0.28125 -1.015625 0.28125l-1.90625 0l0 -6.3125q0 -0.46875 -0.171875 -0.640625q-0.15625 -0.171875 -0.5 -0.171875q-0.34375 0 -0.625 0.171875q-0.359375 0.25 -0.875 0.921875l0 4.03125q0.625 0 0.921875 0.28125q0.3125 0.28125 0.3125 0.71875q0 0.4375 -0.3125 0.71875q-0.296875 0.28125 -1.015625 0.28125l-1.90625 0l0 -6.3125q0 -0.453125 -0.171875 -0.625q-0.171875 -0.1875 -0.515625 -0.1875q-0.34375 0 -0.6875 0.21875q-0.34375 0.21875 -0.828125 0.875l0 4.03125q0.625 0 0.9375 0.28125q0.3125 0.28125 0.3125 0.71875q0 0.4375 -0.3125 0.71875q-0.3125 0.28125 -1.03125 0.28125l-1.8125 0q-0.71875 0 -1.015625 -0.28125q-0.3125 -0.28125 -0.3125 -0.71875q0 -0.453125 0.3125 -0.71875q0.296875 -0.28125 0.921875 -0.28125l0 -4.859375q-0.625 0 -0.921875 -0.28125q-0.3125 -0.296875 -0.3125 -0.734375q0 -0.4375 0.3125 -0.71875q0.296875 -0.28125 1.015625 -0.28125l1.90625 0z" fill-rule="nonzero"/><path fill="#9fc5e8" d="m566.92914 37.795277l188.97638 0l0 37.795277l-188.97638 0z" fill-rule="evenodd"/><path fill="#000000" d="m600.03156 58.955414l0 2.9375l2.0625 0q0.71875 0 1.015625 0.28125q0.3125 0.265625 0.3125 0.71875q0 0.4375 -0.3125 0.71875q-0.296875 0.28125 -1.015625 0.28125l-4.375 0q-0.71875 0 -1.03125 -0.28125q-0.296875 -0.28125 -0.296875 -0.71875q0 -0.453125 0.3125 -0.71875q0.3125 -0.28125 1.015625 -0.28125l0.3125 0l0 -7.828125l-0.3125 0q-0.71875 0 -1.03125 -0.28125q-0.296875 -0.28125 -0.296875 -0.734375q0 -0.453125 0.296875 -0.71875q0.3125 -0.28125 1.03125 -0.28125l9.421875 0l0 3.0625q0 0.71875 -0.28125 1.03125q-0.265625 0.296875 -0.71875 0.296875q-0.4375 0 -0.71875 -0.296875q-0.28125 -0.3125 -0.28125 -1.03125l0 -1.046875l-5.109375 0l0 2.890625l1.765625 0q0 -0.78125 0.140625 -1.0q0.3125 -0.484375 0.859375 -0.484375q0.4375 0 0.71875 0.3125q0.28125 0.3125 0.28125 1.03125l0 2.296875q0 0.734375 -0.28125 1.046875q-0.28125 0.296875 -0.71875 0.296875q-0.546875 0 -0.859375 -0.484375q-0.140625 -0.21875 -0.140625 -1.015625l-1.765625 0zm15.173828 4.9375l0 -0.46875q-0.75 0.40625 -1.65625 0.59375q-0.90625 0.203125 -1.640625 0.203125q-1.625 0 -2.625 -0.84375q-1.0 -0.859375 -1.0 -1.890625q0 -1.265625 1.28125 -2.34375q1.28125 -1.078125 3.546875 -1.078125q0.90625 0 2.09375 0.1875l0 -0.46875q0 -0.453125 -0.390625 -0.734375q-0.375 -0.28125 -1.453125 -0.28125q-0.890625 0 -2.3125 0.34375q-0.53125 0.125 -0.8125 0.125q-0.40625 0 -0.6875 -0.28125q-0.28125 -0.296875 -0.28125 -0.734375q0 -0.265625 0.09375 -0.4375q0.109375 -0.1875 0.28125 -0.296875q0.171875 -0.125 0.734375 -0.28125q0.75 -0.203125 1.515625 -0.3125q0.765625 -0.125 1.390625 -0.125q1.875 0 2.90625 0.8125q1.03125 0.796875 1.03125 2.1875l0 4.125l0.328125 0q0.734375 0 1.03125 0.28125q0.3125 0.265625 0.3125 0.71875q0 0.4375 -0.3125 0.71875q-0.296875 0.28125 -1.03125 0.28125l-2.34375 0zm0 -3.578125q-1.1875 -0.234375 -2.203125 -0.234375q-1.234375 0 -2.109375 0.59375q-0.546875 0.375 -0.546875 0.765625q0 0.28125 0.265625 0.453125q0.484375 0.328125 1.34375 0.328125q0.71875 0 1.625 -0.28125q0.921875 -0.28125 1.625 -0.765625l0 -0.859375zm7.689453 -9.09375l0 4.5q0.71875 -0.484375 1.46875 -0.71875q0.765625 -0.234375 1.546875 -0.234375q2.078125 0 3.515625 1.4375q1.453125 1.421875 1.453125 3.453125q0 1.953125 -1.375 3.265625q-1.375 1.296875 -3.640625 1.296875q-0.796875 0 -1.546875 -0.21875q-0.734375 -0.203125 -1.421875 -0.59375l0 0.484375l-2.34375 0q-0.734375 0 -1.046875 -0.28125q-0.296875 -0.28125 -0.296875 -0.71875q0 -0.453125 0.3125 -0.71875q0.3125 -0.28125 1.03125 -0.28125l0.328125 0l0 -8.671875l-0.328125 0q-0.734375 0 -1.046875 -0.265625q-0.296875 -0.28125 -0.296875 -0.734375q0 -0.4375 0.296875 -0.71875q0.3125 -0.28125 1.046875 -0.28125l2.34375 0zm5.984375 8.5q0 -1.234375 -0.875 -2.09375q-0.875 -0.859375 -2.125 -0.859375q-1.25 0 -2.125 0.859375q-0.859375 0.859375 -0.859375 2.0625q0 1.109375 0.78125 1.8125q0.78125 0.703125 2.203125 0.703125q1.421875 0 2.203125 -0.703125q0.796875 -0.703125 0.796875 -1.78125zm8.126953 -4.703125l0 1.25q1.25 -0.90625 1.96875 -1.203125q0.734375 -0.296875 1.375 -0.296875q0.96875 0 1.890625 0.71875q0.625 0.484375 0.625 1.0q0 0.421875 -0.296875 0.71875q-0.296875 0.296875 -0.71875 0.296875q-0.375 0 -0.78125 -0.359375q-0.40625 -0.375 -0.734375 -0.375q-0.421875 0 -1.25 0.53125q-0.828125 0.515625 -2.078125 1.578125l0 3.015625l2.84375 0q0.71875 0 1.03125 0.28125q0.3125 0.265625 0.3125 0.71875q0 0.4375 -0.3125 0.71875q-0.3125 0.28125 -1.03125 0.28125l-6.046875 0q-0.71875 0 -1.03125 -0.28125q-0.296875 -0.28125 -0.296875 -0.71875q0 -0.453125 0.296875 -0.71875q0.3125 -0.28125 1.03125 -0.28125l1.1875 0l0 -4.859375l-0.71875 0q-0.71875 0 -1.03125 -0.28125q-0.296875 -0.28125 -0.296875 -0.734375q0 -0.4375 0.296875 -0.71875q0.3125 -0.28125 1.03125 -0.28125l2.734375 0zm13.126953 -3.796875l0 2.125l-2.375 0l0 -2.125l2.375 0zm0.28125 3.796875l0 6.875l2.390625 0q0.734375 0 1.03125 0.28125q0.3125 0.265625 0.3125 0.71875q0 0.4375 -0.3125 0.71875q-0.296875 0.28125 -1.03125 0.28125l-6.796875 0q-0.734375 0 -1.046875 -0.28125q-0.296875 -0.28125 -0.296875 -0.71875q0 -0.453125 0.296875 -0.71875q0.3125 -0.28125 1.046875 -0.28125l2.390625 0l0 -4.859375l-1.609375 0q-0.703125 0 -1.015625 -0.28125q-0.3125 -0.28125 -0.3125 -0.734375q0 -0.4375 0.296875 -0.71875q0.3125 -0.28125 1.03125 -0.28125l3.625 0zm14.126953 0.375q0.359375 -0.34375 0.734375 -0.34375q0.4375 0 0.703125 0.3125q0.28125 0.296875 0.28125 1.015625l0 1.28125q0 0.71875 -0.28125 1.03125q-0.265625 0.296875 -0.71875 0.296875q-0.40625 0 -0.6875 -0.234375q-0.203125 -0.171875 -0.328125 -0.703125q-0.109375 -0.546875 -0.5625 -0.8125q-0.796875 -0.46875 -2.03125 -0.46875q-1.40625 0 -2.265625 0.828125q-0.859375 0.828125 -0.859375 2.09375q0 1.171875 0.8125 1.859375q0.828125 0.671875 2.734375 0.671875q1.25 0 2.046875 -0.25q0.46875 -0.15625 0.890625 -0.53125q0.421875 -0.375 0.765625 -0.375q0.40625 0 0.703125 0.296875q0.296875 0.296875 0.296875 0.71875q0 0.65625 -0.90625 1.25q-1.34375 0.890625 -3.953125 0.890625q-2.328125 0 -3.625 -0.96875q-1.765625 -1.296875 -1.765625 -3.546875q0 -2.140625 1.421875 -3.53125q1.4375 -1.40625 3.734375 -1.40625q0.828125 0 1.53125 0.15625q0.71875 0.15625 1.328125 0.46875zm10.673828 8.5l0 -0.46875q-0.75 0.40625 -1.65625 0.59375q-0.90625 0.203125 -1.640625 0.203125q-1.625 0 -2.625 -0.84375q-1.0 -0.859375 -1.0 -1.890625q0 -1.265625 1.28125 -2.34375q1.28125 -1.078125 3.546875 -1.078125q0.90625 0 2.09375 0.1875l0 -0.46875q0 -0.453125 -0.390625 -0.734375q-0.375 -0.28125 -1.453125 -0.28125q-0.890625 0 -2.3125 0.34375q-0.53125 0.125 -0.8125 0.125q-0.40625 0 -0.6875 -0.28125q-0.28125 -0.296875 -0.28125 -0.734375q0 -0.265625 0.09375 -0.4375q0.109375 -0.1875 0.28125 -0.296875q0.171875 -0.125 0.734375 -0.28125q0.75 -0.203125 1.515625 -0.3125q0.765625 -0.125 1.390625 -0.125q1.875 0 2.90625 0.8125q1.03125 0.796875 1.03125 2.1875l0 4.125l0.328125 0q0.734375 0 1.03125 0.28125q0.3125 0.265625 0.3125 0.71875q0 0.4375 -0.3125 0.71875q-0.296875 0.28125 -1.03125 0.28125l-2.34375 0zm0 -3.578125q-1.1875 -0.234375 -2.203125 -0.234375q-1.234375 0 -2.109375 0.59375q-0.546875 0.375 -0.546875 0.765625q0 0.28125 0.265625 0.453125q0.484375 0.328125 1.34375 0.328125q0.71875 0 1.625 -0.28125q0.921875 -0.28125 1.625 -0.765625l0 -0.859375zm9.720703 -3.28125l0 4.0q0 0.65625 0.25 0.859375q0.421875 0.3125 1.46875 0.3125q1.53125 0 2.828125 -0.640625q0.5 -0.265625 0.78125 -0.265625q0.390625 0 0.671875 0.296875q0.296875 0.296875 0.296875 0.71875q0 0.390625 -0.3125 0.671875q-0.46875 0.453125 -1.890625 0.84375q-1.40625 0.390625 -2.375 0.390625q-1.859375 0 -2.796875 -0.8125q-0.9375 -0.8125 -0.9375 -1.984375l0 -4.390625l-0.71875 0q-0.71875 0 -1.03125 -0.28125q-0.296875 -0.28125 -0.296875 -0.734375q0 -0.4375 0.296875 -0.71875q0.3125 -0.28125 1.03125 -0.28125l0.71875 0l0 -1.796875q0 -0.71875 0.28125 -1.03125q0.28125 -0.3125 0.734375 -0.3125q0.4375 0 0.71875 0.3125q0.28125 0.3125 0.28125 1.03125l0 1.796875l3.6875 0q0.734375 0 1.03125 0.28125q0.3125 0.28125 0.3125 0.734375q0 0.4375 -0.3125 0.71875q-0.296875 0.28125 -1.03125 0.28125l-3.6875 0zm13.205078 -5.8125l0 2.125l-2.375 0l0 -2.125l2.375 0zm0.28125 3.796875l0 6.875l2.390625 0q0.734375 0 1.03125 0.28125q0.3125 0.265625 0.3125 0.71875q0 0.4375 -0.3125 0.71875q-0.296875 0.28125 -1.03125 0.28125l-6.796875 0q-0.734375 0 -1.046875 -0.28125q-0.296875 -0.28125 -0.296875 -0.71875q0 -0.453125 0.296875 -0.71875q0.3125 -0.28125 1.046875 -0.28125l2.390625 0l0 -4.859375l-1.609375 0q-0.703125 0 -1.015625 -0.28125q-0.3125 -0.28125 -0.3125 -0.734375q0 -0.4375 0.296875 -0.71875q0.3125 -0.28125 1.03125 -0.28125l3.625 0zm16.205078 4.609375q0 1.15625 -0.640625 2.234375q-0.640625 1.078125 -1.90625 1.71875q-1.265625 0.640625 -2.640625 0.640625q-1.359375 0 -2.609375 -0.625q-1.25 -0.640625 -1.90625 -1.71875q-0.65625 -1.09375 -0.65625 -2.265625q0 -1.203125 0.65625 -2.359375q0.671875 -1.15625 1.90625 -1.8125q1.25 -0.671875 2.609375 -0.671875q1.375 0 2.625 0.671875q1.265625 0.671875 1.90625 1.828125q0.65625 1.140625 0.65625 2.359375zm-2.0 0q0 -0.953125 -0.703125 -1.765625q-0.9375 -1.09375 -2.484375 -1.09375q-1.359375 0 -2.265625 0.875q-0.90625 0.859375 -0.90625 2.0q0 0.9375 0.90625 1.75q0.921875 0.8125 2.265625 0.8125q1.34375 0 2.265625 -0.8125q0.921875 -0.8125 0.921875 -1.765625zm6.767578 -4.609375l0 0.6875q0.546875 -0.46875 1.203125 -0.703125q0.671875 -0.234375 1.4375 -0.234375q1.78125 0 2.8125 1.09375q0.828125 0.875 0.828125 2.3125l0 3.71875q0.625 0 0.921875 0.28125q0.3125 0.265625 0.3125 0.71875q0 0.4375 -0.3125 0.71875q-0.296875 0.28125 -1.03125 0.28125l-1.796875 0q-0.71875 0 -1.03125 -0.28125q-0.3125 -0.28125 -0.3125 -0.71875q0 -0.453125 0.296875 -0.71875q0.3125 -0.28125 0.953125 -0.28125l0 -3.78125q0 -0.65625 -0.359375 -0.953125q-0.453125 -0.390625 -1.375 -0.390625q-0.6875 0 -1.21875 0.265625q-0.515625 0.265625 -1.328125 1.140625l0 3.71875q0.78125 0 1.0 0.140625q0.484375 0.296875 0.484375 0.859375q0 0.4375 -0.3125 0.71875q-0.3125 0.28125 -1.03125 0.28125l-2.265625 0q-0.734375 0 -1.046875 -0.28125q-0.296875 -0.28125 -0.296875 -0.71875q0 -0.546875 0.46875 -0.859375q0.234375 -0.140625 1.0 -0.140625l0 -4.859375q-0.625 0 -0.9375 -0.28125q-0.296875 -0.296875 -0.296875 -0.734375q0 -0.4375 0.296875 -0.71875q0.3125 -0.28125 1.046875 -0.28125l1.890625 0z" fill-rule="nonzero"/><path fill="#000000" fill-opacity="0.0" d="m566.92914 75.59055l188.97638 0l0 113.385826l-188.97638 0z" fill-rule="evenodd"/><path fill="#000000" d="m579.44476 102.681175l0 3.28125l1.203125 0q0.71875 0 1.03125 0.28125q0.3125 0.28125 0.3125 0.734375q0 0.4375 -0.3125 0.71875q-0.3125 0.28125 -1.03125 0.28125l-3.546875 0q-0.71875 0 -1.03125 -0.28125q-0.3125 -0.28125 -0.3125 -0.71875q0 -0.453125 0.3125 -0.734375q0.3125 -0.28125 1.03125 -0.28125l0.34375 0l0 -9.03125l-0.34375 0q-0.71875 0 -1.03125 -0.28125q-0.3125 -0.28125 -0.3125 -0.734375q0 -0.4375 0.3125 -0.71875q0.3125 -0.28125 1.03125 -0.28125l2.34375 0l0 0.6875q0.703125 -0.46875 1.453125 -0.703125q0.75 -0.234375 1.546875 -0.234375q2.046875 0 3.484375 1.390625q1.453125 1.390625 1.453125 3.1875q0 1.984375 -1.703125 3.265625q-1.421875 1.078125 -3.21875 1.078125q-0.765625 0 -1.515625 -0.21875q-0.75 -0.234375 -1.5 -0.6875zm5.9375 -3.4375q0 -0.421875 -0.328125 -1.0625q-0.328125 -0.65625 -1.03125 -1.078125q-0.6875 -0.4375 -1.609375 -0.4375q-1.5 0 -2.375 1.125q-0.59375 0.765625 -0.59375 1.484375q0 0.796875 0.84375 1.5625q0.859375 0.75 2.125 0.75q1.265625 0 2.109375 -0.75q0.859375 -0.765625 0.859375 -1.59375zm8.142578 -4.328125l0 1.25q1.25 -0.90625 1.96875 -1.203125q0.734375 -0.296875 1.375 -0.296875q0.96875 0 1.890625 0.71875q0.625 0.484375 0.625 1.0q0 0.421875 -0.296875 0.71875q-0.296875 0.296875 -0.71875 0.296875q-0.375 0 -0.78125 -0.359375q-0.40625 -0.375 -0.734375 -0.375q-0.421875 0 -1.25 0.53125q-0.828125 0.515625 -2.078125 1.578125l0 3.015625l2.84375 0q0.71875 0 1.03125 0.28125q0.3125 0.265625 0.3125 0.71875q0 0.4375 -0.3125 0.71875q-0.3125 0.28125 -1.03125 0.28125l-6.046875 0q-0.71875 0 -1.03125 -0.28125q-0.296875 -0.28125 -0.296875 -0.71875q0 -0.453125 0.296875 -0.71875q0.3125 -0.28125 1.03125 -0.28125l1.1875 0l0 -4.859375l-0.71875 0q-0.71875 0 -1.03125 -0.28125q-0.296875 -0.28125 -0.296875 -0.734375q0 -0.4375 0.296875 -0.71875q0.3125 -0.28125 1.03125 -0.28125l2.734375 0zm17.611328 4.609375q0 1.15625 -0.640625 2.234375q-0.640625 1.078125 -1.90625 1.71875q-1.265625 0.640625 -2.640625 0.640625q-1.359375 0 -2.609375 -0.625q-1.25 -0.640625 -1.90625 -1.71875q-0.65625 -1.09375 -0.65625 -2.265625q0 -1.203125 0.65625 -2.359375q0.671875 -1.15625 1.90625 -1.8125q1.25 -0.671875 2.609375 -0.671875q1.375 0 2.625 0.671875q1.265625 0.671875 1.90625 1.828125q0.65625 1.140625 0.65625 2.359375zm-2.0 0q0 -0.953125 -0.703125 -1.765625q-0.9375 -1.09375 -2.484375 -1.09375q-1.359375 0 -2.265625 0.875q-0.90625 0.859375 -0.90625 2.0q0 0.9375 0.90625 1.75q0.921875 0.8125 2.265625 0.8125q1.34375 0 2.265625 -0.8125q0.921875 -0.8125 0.921875 -1.765625zm13.392578 -8.40625l0 10.671875l0.34375 0q0.71875 0 1.03125 0.28125q0.3125 0.265625 0.3125 0.71875q0 0.4375 -0.3125 0.71875q-0.3125 0.28125 -1.03125 0.28125l-2.34375 0l0 -0.484375q-0.6875 0.390625 -1.4375 0.59375q-0.734375 0.21875 -1.546875 0.21875q-2.25 0 -3.625 -1.296875q-1.375 -1.3125 -1.375 -3.265625q0 -2.03125 1.4375 -3.453125q1.453125 -1.4375 3.53125 -1.4375q0.78125 0 1.53125 0.234375q0.75 0.234375 1.484375 0.71875l0 -2.5l-0.34375 0q-0.71875 0 -1.03125 -0.265625q-0.296875 -0.28125 -0.296875 -0.71875q0 -0.453125 0.296875 -0.734375q0.3125 -0.28125 1.03125 -0.28125l2.34375 0zm-2.0 8.5q0 -1.234375 -0.875 -2.09375q-0.859375 -0.859375 -2.125 -0.859375q-1.25 0 -2.125 0.859375q-0.859375 0.859375 -0.859375 2.0625q0 1.109375 0.78125 1.8125q0.78125 0.703125 2.203125 0.703125q1.421875 0 2.203125 -0.703125q0.796875 -0.703125 0.796875 -1.78125zm13.658203 -4.703125l0 6.875q0.640625 0 0.9375 0.28125q0.3125 0.28125 0.3125 0.71875q0 0.4375 -0.3125 0.71875q-0.3125 0.28125 -1.03125 0.28125l-1.90625 0l0 -0.453125q-0.859375 0.390625 -1.640625 0.578125q-0.78125 0.203125 -1.484375 0.203125q-0.984375 0 -1.703125 -0.421875q-0.71875 -0.421875 -1.140625 -1.140625q-0.3125 -0.53125 -0.3125 -1.328125l0 -4.296875l-0.34375 0q-0.71875 0 -1.03125 -0.28125q-0.296875 -0.28125 -0.296875 -0.734375q0 -0.4375 0.296875 -0.71875q0.3125 -0.28125 1.03125 -0.28125l2.34375 0l0 5.96875q0 0.625 0.3125 0.921875q0.3125 0.296875 0.9375 0.296875q0.609375 0 1.3125 -0.234375q0.703125 -0.234375 1.71875 -0.859375l0 -4.078125l-0.71875 0q-0.71875 0 -1.03125 -0.28125q-0.3125 -0.28125 -0.3125 -0.734375q0 -0.4375 0.3125 -0.71875q0.3125 -0.28125 1.03125 -0.28125l2.71875 0zm8.470703 -3.796875l0 2.125l-2.375 0l0 -2.125l2.375 0zm0.28125 3.796875l0 6.875l2.390625 0q0.734375 0 1.03125 0.28125q0.3125 0.265625 0.3125 0.71875q0 0.4375 -0.3125 0.71875q-0.296875 0.28125 -1.03125 0.28125l-6.796875 0q-0.734375 0 -1.046875 -0.28125q-0.296875 -0.28125 -0.296875 -0.71875q0 -0.453125 0.296875 -0.71875q0.3125 -0.28125 1.046875 -0.28125l2.390625 0l0 -4.859375l-1.609375 0q-0.703125 0 -1.015625 -0.28125q-0.3125 -0.28125 -0.3125 -0.734375q0 -0.4375 0.296875 -0.71875q0.3125 -0.28125 1.03125 -0.28125l3.625 0zm10.517578 2.015625l0 4.0q0 0.65625 0.25 0.859375q0.421875 0.3125 1.46875 0.3125q1.53125 0 2.828125 -0.640625q0.5 -0.265625 0.78125 -0.265625q0.390625 0 0.671875 0.296875q0.296875 0.296875 0.296875 0.71875q0 0.390625 -0.3125 0.671875q-0.46875 0.453125 -1.890625 0.84375q-1.40625 0.390625 -2.375 0.390625q-1.859375 0 -2.796875 -0.8125q-0.9375 -0.8125 -0.9375 -1.984375l0 -4.390625l-0.71875 0q-0.71875 0 -1.03125 -0.28125q-0.296875 -0.28125 -0.296875 -0.734375q0 -0.4375 0.296875 -0.71875q0.3125 -0.28125 1.03125 -0.28125l0.71875 0l0 -1.796875q0 -0.71875 0.28125 -1.03125q0.28125 -0.3125 0.734375 -0.3125q0.4375 0 0.71875 0.3125q0.28125 0.3125 0.28125 1.03125l0 1.796875l3.6875 0q0.734375 0 1.03125 0.28125q0.3125 0.28125 0.3125 0.734375q0 0.4375 -0.3125 0.71875q-0.296875 0.28125 -1.03125 0.28125l-3.6875 0z" fill-rule="nonzero"/><path fill="#000000" d="m586.56976 120.931175l0 9.031242l0.359375 0q0.703125 0 1.015625 0.28125q0.3125 0.28125 0.3125 0.734375q0 0.4375 -0.3125 0.71875q-0.296875 0.28125 -1.015625 0.28125l-3.546875 0q-0.71875 0 -1.03125 -0.28125q-0.3125 -0.28125 -0.3125 -0.71875q0 -0.453125 0.3125 -0.734375q0.3125 -0.28125 1.03125 -0.28125l1.1875 0l0 -3.2812424q-0.734375 0.453125 -1.5 0.6875q-0.75 0.21875 -1.515625 0.21875q-1.78125 0 -3.21875 -1.078125q-1.703125 -1.28125 -1.703125 -3.265625q0 -1.796875 1.4375 -3.1875q1.453125 -1.390625 3.515625 -1.390625q0.796875 0 1.53125 0.234375q0.75 0.234375 1.453125 0.703125l0 -0.6875l2.359375 0q0.703125 0 1.015625 0.28125q0.3125 0.28125 0.3125 0.734375q0 0.4375 -0.3125 0.71875q-0.296875 0.28125 -1.015625 0.28125l-0.359375 0zm-2.0 2.3125q0 -0.421875 -0.328125 -1.0625q-0.328125 -0.65625 -1.03125 -1.078125q-0.6875 -0.4375 -1.609375 -0.4375q-1.5 0 -2.375 1.125q-0.59375 0.765625 -0.59375 1.484375q0 0.796875 0.859375 1.5625q0.859375 0.75 2.109375 0.75q1.265625 0 2.109375 -0.75q0.859375 -0.765625 0.859375 -1.59375zm13.611328 -4.328125l0 6.875q0.640625 0 0.9375 0.28125q0.3125 0.28125 0.3125 0.71875q0 0.4375 -0.3125 0.71875q-0.3125 0.28125 -1.03125 0.28125l-1.90625 0l0 -0.453125q-0.859375 0.390625 -1.640625 0.578125q-0.78125 0.20311737 -1.484375 0.20311737q-0.984375 0 -1.703125 -0.42186737q-0.71875 -0.421875 -1.140625 -1.140625q-0.3125 -0.53125 -0.3125 -1.328125l0 -4.296875l-0.34375 0q-0.71875 0 -1.03125 -0.28125q-0.296875 -0.28125 -0.296875 -0.734375q0 -0.4375 0.296875 -0.71875q0.3125 -0.28125 1.03125 -0.28125l2.34375 0l0 5.96875q0 0.625 0.3125 0.921875q0.3125 0.296875 0.9375 0.296875q0.609375 0 1.3125 -0.234375q0.703125 -0.234375 1.71875 -0.859375l0 -4.078125l-0.71875 0q-0.71875 0 -1.03125 -0.28125q-0.3125 -0.28125 -0.3125 -0.734375q0 -0.4375 0.3125 -0.71875q0.3125 -0.28125 1.03125 -0.28125l2.71875 0zm9.548828 8.875l0 -0.46875q-0.75 0.40625 -1.65625 0.59375q-0.90625 0.20311737 -1.640625 0.20311737q-1.625 0 -2.625 -0.8437424q-1.0 -0.859375 -1.0 -1.890625q0 -1.265625 1.28125 -2.34375q1.28125 -1.078125 3.546875 -1.078125q0.90625 0 2.09375 0.1875l0 -0.46875q0 -0.453125 -0.390625 -0.734375q-0.375 -0.28125 -1.453125 -0.28125q-0.890625 0 -2.3125 0.34375q-0.53125 0.125 -0.8125 0.125q-0.40625 0 -0.6875 -0.28125q-0.28125 -0.296875 -0.28125 -0.734375q0 -0.265625 0.09375 -0.4375q0.109375 -0.1875 0.28125 -0.296875q0.171875 -0.125 0.734375 -0.28125q0.75 -0.203125 1.515625 -0.3125q0.765625 -0.125 1.390625 -0.125q1.875 0 2.90625 0.8125q1.03125 0.796875 1.03125 2.1875l0 4.125l0.328125 0q0.734375 0 1.03125 0.28125q0.3125 0.265625 0.3125 0.71875q0 0.4375 -0.3125 0.71875q-0.296875 0.28125 -1.03125 0.28125l-2.34375 0zm0 -3.578125q-1.1875 -0.234375 -2.203125 -0.234375q-1.234375 0 -2.109375 0.59375q-0.546875 0.375 -0.546875 0.765625q0 0.28125 0.265625 0.453125q0.484375 0.328125 1.34375 0.328125q0.71875 0 1.625 -0.28125q0.921875 -0.28125 1.625 -0.765625l0 -0.859375zm8.173828 -5.296875l0 0.6875q0.546875 -0.46875 1.203125 -0.703125q0.671875 -0.234375 1.4375 -0.234375q1.78125 0 2.8125 1.09375q0.828125 0.875 0.828125 2.3125l0 3.71875q0.625 0 0.921875 0.28125q0.3125 0.265625 0.3125 0.71875q0 0.4375 -0.3125 0.71875q-0.296875 0.28125 -1.03125 0.28125l-1.796875 0q-0.71875 0 -1.03125 -0.28125q-0.3125 -0.28125 -0.3125 -0.71875q0 -0.453125 0.296875 -0.71875q0.3125 -0.28125 0.953125 -0.28125l0 -3.78125q0 -0.65625 -0.359375 -0.953125q-0.453125 -0.390625 -1.375 -0.390625q-0.6875 0 -1.21875 0.265625q-0.515625 0.265625 -1.328125 1.140625l0 3.71875q0.78125 0 1.0 0.140625q0.484375 0.296875 0.484375 0.859375q0 0.4375 -0.3125 0.71875q-0.3125 0.28125 -1.03125 0.28125l-2.265625 0q-0.734375 0 -1.046875 -0.28125q-0.296875 -0.28125 -0.296875 -0.71875q0 -0.546875 0.46875 -0.859375q0.234375 -0.140625 1.0 -0.140625l0 -4.859375q-0.625 0 -0.9375 -0.28125q-0.296875 -0.296875 -0.296875 -0.734375q0 -0.4375 0.296875 -0.71875q0.3125 -0.28125 1.046875 -0.28125l1.890625 0zm13.548828 2.015625l0 4.0q0 0.65625 0.25 0.859375q0.421875 0.3125 1.46875 0.3125q1.53125 0 2.828125 -0.640625q0.5 -0.265625 0.78125 -0.265625q0.390625 0 0.671875 0.296875q0.296875 0.296875 0.296875 0.71875q0 0.390625 -0.3125 0.671875q-0.46875 0.453125 -1.890625 0.84375q-1.40625 0.39061737 -2.375 0.39061737q-1.859375 0 -2.796875 -0.8124924q-0.9375 -0.8125 -0.9375 -1.984375l0 -4.390625l-0.71875 0q-0.71875 0 -1.03125 -0.28125q-0.296875 -0.28125 -0.296875 -0.734375q0 -0.4375 0.296875 -0.71875q0.3125 -0.28125 1.03125 -0.28125l0.71875 0l0 -1.796875q0 -0.71875 0.28125 -1.03125q0.28125 -0.3125 0.734375 -0.3125q0.4375 0 0.71875 0.3125q0.28125 0.3125 0.28125 1.03125l0 1.796875l3.6875 0q0.734375 0 1.03125 0.28125q0.3125 0.28125 0.3125 0.734375q0 0.4375 -0.3125 0.71875q-0.296875 0.28125 -1.03125 0.28125l-3.6875 0zm13.205078 -5.8125l0 2.125l-2.375 0l0 -2.125l2.375 0zm0.28125 3.796875l0 6.875l2.390625 0q0.734375 0 1.03125 0.28125q0.3125 0.265625 0.3125 0.71875q0 0.4375 -0.3125 0.71875q-0.296875 0.28125 -1.03125 0.28125l-6.796875 0q-0.734375 0 -1.046875 -0.28125q-0.296875 -0.28125 -0.296875 -0.71875q0 -0.453125 0.296875 -0.71875q0.3125 -0.28125 1.046875 -0.28125l2.390625 0l0 -4.859375l-1.609375 0q-0.703125 0 -1.015625 -0.28125q-0.3125 -0.28125 -0.3125 -0.734375q0 -0.4375 0.296875 -0.71875q0.3125 -0.28125 1.03125 -0.28125l3.625 0zm10.517578 2.015625l0 4.0q0 0.65625 0.25 0.859375q0.421875 0.3125 1.46875 0.3125q1.53125 0 2.828125 -0.640625q0.5 -0.265625 0.78125 -0.265625q0.390625 0 0.671875 0.296875q0.296875 0.296875 0.296875 0.71875q0 0.390625 -0.3125 0.671875q-0.46875 0.453125 -1.890625 0.84375q-1.40625 0.39061737 -2.375 0.39061737q-1.859375 0 -2.796875 -0.8124924q-0.9375 -0.8125 -0.9375 -1.984375l0 -4.390625l-0.71875 0q-0.71875 0 -1.03125 -0.28125q-0.296875 -0.28125 -0.296875 -0.734375q0 -0.4375 0.296875 -0.71875q0.3125 -0.28125 1.03125 -0.28125l0.71875 0l0 -1.796875q0 -0.71875 0.28125 -1.03125q0.28125 -0.3125 0.734375 -0.3125q0.4375 0 0.71875 0.3125q0.28125 0.3125 0.28125 1.03125l0 1.796875l3.6875 0q0.734375 0 1.03125 0.28125q0.3125 0.28125 0.3125 0.734375q0 0.4375 -0.3125 0.71875q-0.296875 0.28125 -1.03125 0.28125l-3.6875 0zm17.517578 3.4375l-8.21875 0q0.3125 0.78125 1.109375 1.265625q0.796875 0.46875 2.15625 0.46875q1.109375 0 2.953125 -0.46875q0.765625 -0.203125 1.0625 -0.203125q0.390625 0 0.65625 0.296875q0.28125 0.28125 0.28125 0.703125q0 0.390625 -0.28125 0.671875q-0.390625 0.359375 -1.90625 0.6875q-1.515625 0.32811737 -2.921875 0.32811737q-2.390625 0 -3.84375 -1.3593674q-1.4375 -1.359375 -1.4375 -3.34375q0 -2.109375 1.5625 -3.421875q1.5625 -1.328125 3.59375 -1.328125q1.21875 0 2.234375 0.4375q1.015625 0.421875 1.515625 0.90625q0.703125 0.734375 1.171875 1.796875q0.3125 0.734375 0.3125 1.71875l0 0.84375zm-2.21875 -2.0q-0.46875 -0.859375 -1.21875 -1.28125q-0.734375 -0.421875 -1.75 -0.421875q-1.015625 0 -1.765625 0.421875q-0.734375 0.421875 -1.203125 1.28125l5.9375 0z" fill-rule="nonzero"/></g></svg>